<?xml version="1.0" standalone="no"?>
<!DOCTYPE svg PUBLIC "-//W3C//DTD SVG 20010904//EN"
 "http://www.w3.org/TR/2001/REC-SVG-20010904/DTD/svg10.dtd">
<svg version="1.0" xmlns="http://www.w3.org/2000/svg"
 width="451.000000pt" height="451.000000pt" viewBox="0 0 451.000000 451.000000"
 preserveAspectRatio="xMidYMid meet">
<metadata>
Created by potrace 1.14, written by Peter Selinger 2001-2017
</metadata>
<g transform="translate(0.000000,451.000000) scale(0.100000,-0.100000)"
fill="#000000" stroke="none">
<path d="M1910 4478 c-134 -21 -227 -39 -241 -47 -9 -5 -34 -13 -55 -17 -22
-3 -43 -10 -49 -14 -5 -4 -26 -11 -45 -15 -19 -4 -44 -14 -55 -21 -11 -8 -30
-14 -42 -14 -13 0 -23 -4 -23 -8 0 -5 -18 -14 -40 -21 -39 -12 -210 -97 -220
-110 -3 -3 -16 -12 -30 -19 -14 -7 -34 -18 -45 -25 -100 -62 -125 -80 -125
-88 0 -5 -6 -9 -13 -9 -8 0 -22 -9 -32 -20 -10 -11 -22 -20 -27 -20 -11 0 -29
-16 -201 -181 -70 -68 -127 -127 -127 -132 0 -5 -12 -22 -27 -38 -16 -15 -41
-47 -58 -69 -16 -23 -37 -49 -46 -59 -8 -10 -19 -24 -22 -32 -4 -8 -25 -43
-48 -79 -50 -79 -149 -266 -149 -282 0 -9 -24 -66 -51 -119 -4 -9 -11 -33 -14
-53 -4 -20 -11 -39 -16 -41 -4 -3 -11 -26 -15 -50 -3 -25 -10 -48 -15 -50 -4
-3 -11 -27 -14 -53 -4 -26 -9 -54 -12 -62 -3 -8 -5 -27 -4 -42 2 -16 -2 -28
-7 -28 -6 0 -12 -23 -14 -50 l-3 -51 150 3 150 3 8 50 c4 28 7 59 8 70 0 10 4
24 8 30 5 5 12 28 16 50 4 22 10 45 15 50 4 6 10 27 14 47 4 20 13 50 21 65 8
15 15 36 15 45 0 9 4 19 8 22 5 3 21 38 37 78 16 40 32 75 35 78 9 8 29 43 51
87 11 23 27 47 35 54 8 6 14 16 14 21 0 10 60 98 89 130 9 10 32 38 51 63 46
60 174 188 243 245 95 77 193 150 202 150 4 0 20 10 37 21 69 50 318 169 352
169 8 0 17 4 20 9 4 5 24 12 46 16 22 4 42 10 45 15 3 4 38 13 78 20 39 6 80
16 89 21 10 5 34 9 53 9 20 0 38 6 41 13 2 7 3 76 2 152 l-3 140 -45 -7z"/>
<path d="M2150 3950 c-19 -5 -89 -14 -155 -20 -66 -7 -124 -15 -130 -20 -5 -4
-29 -11 -52 -15 -24 -4 -45 -11 -49 -16 -3 -5 -14 -9 -26 -9 -11 0 -34 -6 -51
-14 -18 -8 -61 -26 -97 -39 -66 -26 -155 -71 -178 -89 -14 -12 -65 -41 -99
-57 -13 -6 -23 -15 -23 -21 0 -5 -5 -10 -11 -10 -6 0 -30 -16 -53 -36 -22 -19
-59 -50 -80 -67 -84 -69 -180 -173 -284 -312 -43 -58 -152 -259 -152 -282 0
-7 -5 -13 -10 -13 -6 0 -9 -3 -8 -7 2 -10 -8 -38 -28 -78 -7 -16 -17 -46 -20
-65 -4 -19 -10 -39 -14 -45 -4 -5 -11 -30 -14 -55 -4 -25 -11 -54 -16 -65 -42
-90 -42 -633 -1 -705 5 -9 12 -39 16 -68 4 -29 10 -52 15 -52 4 0 10 -17 14
-39 3 -21 13 -51 21 -67 8 -16 15 -37 15 -46 0 -9 5 -20 10 -23 6 -4 8 -11 5
-16 -4 -5 -1 -9 4 -9 6 0 11 -6 11 -13 0 -21 99 -207 126 -238 8 -8 14 -19 14
-23 0 -4 4 -12 10 -19 5 -7 26 -32 45 -57 113 -143 182 -212 325 -325 25 -19
52 -41 60 -48 17 -14 45 -31 80 -49 14 -6 32 -18 40 -24 23 -19 152 -84 166
-84 7 0 27 -8 46 -17 58 -29 65 -31 102 -38 20 -4 38 -11 41 -15 3 -5 24 -11
48 -15 23 -4 47 -11 52 -15 6 -5 64 -13 130 -20 66 -6 142 -15 168 -21 61 -12
106 -11 176 1 31 5 110 14 176 21 66 6 125 14 130 19 6 4 30 11 55 15 25 4 50
11 55 15 6 4 25 11 43 15 18 4 45 13 60 21 15 8 35 14 45 14 9 0 17 5 17 10 0
6 6 10 13 10 17 0 172 80 237 122 121 80 170 120 284 234 114 114 155 164 234
284 40 62 142 258 142 274 0 6 6 23 14 38 8 15 17 42 21 60 4 18 11 38 15 43
4 6 11 30 15 55 4 25 11 50 15 55 4 6 11 42 15 80 4 39 12 78 17 89 13 24 13
423 0 439 -5 7 -13 44 -17 82 -4 39 -11 75 -15 80 -4 6 -11 30 -15 55 -4 25
-11 50 -15 55 -4 6 -11 25 -15 43 -4 18 -13 45 -21 60 -8 15 -14 32 -14 38 0
16 -102 212 -142 274 -79 120 -120 170 -234 284 -114 114 -163 154 -284 234
-65 42 -220 122 -237 122 -7 0 -13 5 -13 10 0 6 -8 10 -17 10 -10 0 -31 7 -46
15 -15 8 -43 17 -62 21 -19 3 -35 10 -35 14 0 4 -25 11 -55 15 -30 3 -57 10
-60 15 -14 23 -428 56 -495 40z m120 -169 c0 -5 13 -11 29 -14 18 -4 31 -14
35 -29 10 -39 6 -132 -7 -158 -24 -47 -125 -48 -147 0 -4 8 -12 25 -18 37 -33
64 22 169 91 172 9 1 17 -3 17 -8z m273 -31 c18 -16 2 -45 -26 -48 -18 -2 -27
-9 -27 -21 0 -9 -4 -21 -9 -26 -6 -6 -11 -32 -13 -60 -3 -46 -5 -50 -30 -53
-27 -3 -28 -2 -28 47 0 27 5 53 10 56 6 3 10 19 10 36 0 26 -3 29 -30 29 -25
0 -30 4 -30 23 0 13 3 27 8 31 9 10 154 -3 165 -14z m-451 -7 c10 -9 18 -24
18 -34 0 -10 5 -21 10 -24 14 -8 13 -78 -2 -110 -6 -14 -27 -33 -46 -42 -33
-16 -37 -16 -71 3 -45 24 -61 55 -61 123 0 73 25 101 88 101 28 0 52 -6 64
-17z m536 -9 c22 -6 31 -37 13 -48 -4 -3 -11 -25 -14 -50 -4 -24 -12 -63 -19
-85 -11 -35 -17 -41 -40 -41 -23 0 -28 4 -28 24 0 14 4 27 9 30 5 3 12 30 16
61 3 30 11 57 16 60 5 4 9 17 9 31 0 26 3 27 38 18z m-752 -39 c3 -19 10 -38
15 -41 5 -3 7 -10 3 -15 -3 -5 -1 -15 4 -22 5 -7 13 -28 17 -47 4 -19 12 -38
18 -42 14 -9 8 -15 -24 -23 -25 -6 -37 6 -52 56 -4 11 -14 15 -35 11 -29 -4
-29 -4 -16 -40 18 -51 17 -62 -6 -62 -11 0 -20 -4 -20 -10 0 -5 -4 -10 -9 -10
-5 0 -12 20 -15 45 -4 25 -11 45 -16 45 -4 0 -11 19 -15 43 -4 23 -12 45 -18
48 -5 4 -7 19 -3 33 10 42 43 34 63 -16 9 -23 19 -36 21 -30 2 7 12 12 21 12
23 0 33 11 22 24 -4 6 -11 23 -15 38 -5 20 -2 28 11 31 37 10 42 6 49 -28z
m870 5 c9 0 14 -11 14 -34 0 -19 5 -38 10 -41 6 -3 11 -18 11 -33 1 -24 3 -23
12 11 6 20 14 37 19 37 4 0 8 7 8 15 0 12 7 14 28 9 33 -8 41 -15 25 -21 -7
-3 -13 -11 -13 -20 0 -8 -6 -29 -14 -46 -8 -18 -20 -50 -26 -72 -21 -68 -37
-78 -70 -45 -15 15 -20 33 -20 71 0 43 -2 50 -14 40 -8 -7 -17 -30 -21 -52 -7
-42 -18 -47 -50 -23 -18 14 -19 16 -3 47 10 17 20 45 24 61 4 16 13 41 20 55
8 14 14 32 14 40 0 8 6 11 16 7 9 -3 22 -6 30 -6z m-1089 -89 c16 -25 -2 -41
-42 -38 -15 1 -30 -3 -32 -10 -3 -9 9 -11 45 -6 41 5 54 2 71 -14 40 -37 21
-133 -26 -133 -7 0 -13 -4 -13 -10 0 -20 -47 -10 -70 15 -18 20 -21 28 -12 37
7 7 12 8 12 3 0 -6 5 -3 10 5 7 12 12 12 22 2 15 -15 44 -16 53 -2 3 6 -1 18
-10 27 -14 13 -23 14 -44 7 -43 -17 -85 12 -89 62 -2 34 1 41 25 56 39 23 85
23 100 -1z m1356 -31 c43 -26 64 -67 44 -87 -12 -12 -18 -10 -43 16 -34 37
-50 38 -81 9 -29 -28 -32 -83 -4 -98 30 -15 32 -13 25 27 l-7 36 34 -7 c32 -6
75 -36 52 -36 -6 0 -14 -12 -18 -27 -9 -35 -21 -43 -71 -43 -27 0 -51 7 -69
22 -25 20 -27 25 -23 77 3 30 10 57 16 59 7 2 12 9 12 16 0 7 9 21 20 31 11
10 20 14 20 10 0 -5 5 -4 12 3 17 17 42 15 81 -8z m-110 -348 c6 -5 49 -13 95
-17 45 -4 82 -11 82 -16 0 -5 12 -9 28 -9 71 0 72 -3 72 -111 0 -54 4 -101 10
-104 6 -3 10 -19 10 -35 0 -16 -4 -32 -10 -35 -5 -3 -10 -2 -10 4 0 5 -20 13
-45 17 -25 3 -45 10 -45 14 0 5 -22 11 -50 15 -27 4 -50 11 -50 17 0 5 -10 8
-22 7 -13 -1 -30 1 -38 4 -54 22 -435 49 -476 33 -11 -4 -11 -10 1 -33 8 -15
15 -35 15 -45 0 -9 6 -18 13 -20 16 -6 18 -305 1 -316 -6 -4 -14 -20 -18 -37
-4 -16 -19 -45 -32 -62 -14 -18 -22 -33 -17 -33 4 0 -15 -22 -42 -50 -27 -27
-55 -50 -62 -50 -7 0 -13 -3 -13 -7 0 -5 -15 -17 -33 -27 l-32 -19 35 -9 c78
-21 209 -154 225 -228 4 -19 12 -41 19 -49 15 -19 15 -263 0 -282 -7 -8 -15
-30 -19 -49 -4 -19 -10 -37 -14 -40 -7 -6 -23 -31 -47 -74 l-16 -29 143 7 c79
4 148 11 154 15 5 5 40 12 78 16 37 3 67 10 67 15 0 5 15 10 33 12 l32 3 7
145 c4 80 10 212 14 293 l5 148 -168 -4 c-92 -2 -180 -7 -195 -12 l-28 -7 0
121 0 121 343 0 343 0 -4 -127 c-2 -71 -8 -133 -13 -138 -4 -6 -11 -173 -15
-371 l-7 -360 -26 -12 c-14 -6 -51 -14 -81 -18 -30 -4 -59 -10 -65 -14 -5 -5
-46 -11 -90 -15 -44 -4 -86 -12 -94 -19 -20 -16 -602 -16 -622 0 -8 7 -38 15
-66 19 -29 4 -53 11 -53 16 0 13 -28 11 -32 -2 -3 -8 -130 -12 -437 -15 l-433
-4 7 27 c10 38 23 228 24 341 1 51 5 100 11 110 9 15 24 486 36 1105 l5 238
445 -1 c287 -1 449 2 457 9 7 5 37 13 67 17 30 4 60 10 65 15 18 13 101 17
338 14 131 -2 233 -7 240 -13z m-1473 -2163 l0 -80 -27 3 c-28 3 -28 4 -31 81
l-3 77 31 0 30 0 0 -81z m95 61 c3 -11 10 -20 15 -20 5 0 12 -9 15 -20 11 -34
21 -22 17 20 -4 37 -2 40 22 40 26 0 26 0 26 -80 l0 -80 -27 0 c-21 1 -34 10
-50 36 -13 20 -23 40 -23 45 0 5 -4 9 -9 9 -6 0 -9 -19 -8 -42 2 -38 -1 -43
-20 -46 -22 -3 -23 -1 -23 77 l0 81 29 0 c21 0 32 -6 36 -20z m256 -2 c11 -20
10 -21 -35 -15 -30 4 -45 3 -41 -3 3 -6 14 -10 23 -10 31 0 62 -29 62 -58 0
-45 -13 -54 -70 -54 -51 0 -69 10 -70 40 0 20 31 27 42 9 10 -18 48 -24 48 -7
0 5 -20 19 -45 30 -35 16 -45 26 -45 45 0 31 24 44 77 45 33 0 45 -5 54 -22z
m189 2 c0 -16 -7 -20 -30 -20 l-30 0 0 -61 c0 -57 -1 -60 -22 -57 -20 3 -23
10 -26 61 -3 53 -5 57 -27 57 -18 0 -25 5 -25 20 0 18 7 20 80 20 73 0 80 -2
80 -20z m148 8 c17 -17 15 -55 -5 -66 -15 -9 -14 -12 5 -37 29 -36 28 -45 -5
-45 -21 0 -33 9 -48 33 l-19 32 -4 -32 c-3 -29 -7 -33 -33 -33 l-29 0 0 80 0
80 63 0 c36 0 68 -5 75 -12z m92 -48 c0 -45 4 -62 15 -66 28 -11 45 16 45 72
0 47 2 54 20 54 18 0 20 -7 20 -63 0 -81 -13 -100 -70 -100 -60 0 -90 36 -90
111 0 51 0 52 30 52 l30 0 0 -60z m276 46 c18 -14 18 -16 2 -32 -15 -15 -18
-15 -38 -1 -33 23 -50 11 -50 -34 0 -45 20 -60 45 -35 20 19 55 21 55 3 0 -19
-32 -46 -56 -48 -50 -5 -70 2 -86 32 -40 69 -9 129 65 129 24 0 52 -6 63 -14z
m184 -6 c0 -15 -7 -20 -25 -20 -22 0 -24 -4 -27 -57 -3 -50 -6 -58 -23 -58
-17 0 -20 8 -23 57 -3 53 -5 57 -30 60 -16 2 -28 10 -30 21 -3 15 6 17 77 17
74 0 81 -2 81 -20z m78 -57 c-3 -77 -3 -78 -30 -81 l-28 -3 0 80 0 81 30 0 31
0 -3 -77z m182 50 c17 -21 21 -37 17 -65 -7 -52 -28 -70 -84 -71 -40 0 -50 4
-70 29 -26 33 -29 58 -10 97 14 30 24 34 84 36 34 1 45 -4 63 -26z m119 -10
l30 -38 1 38 c0 33 3 37 25 37 25 0 25 -1 25 -80 0 -74 -2 -80 -20 -80 -23 0
-53 25 -63 53 -11 29 -27 19 -27 -18 0 -28 -4 -35 -20 -35 -18 0 -20 7 -20 80
0 72 2 80 19 80 10 0 33 -17 50 -37z"/>
<path d="M2230 3715 c0 -8 -4 -15 -10 -15 -5 0 -10 -15 -10 -32 1 -73 62 -95
68 -24 5 57 -5 86 -28 86 -11 0 -20 -7 -20 -15z"/>
<path d="M2007 3703 c-10 -10 -8 -82 2 -102 6 -10 20 -17 33 -16 20 1 23 8 26
44 4 56 -34 102 -61 74z"/>
<path d="M1567 2973 c-3 -5 -8 -105 -11 -223 -4 -154 -3 -205 5 -180 5 19 14
44 19 55 5 11 18 42 30 68 27 63 80 150 97 160 7 4 13 14 13 20 0 7 18 31 40
52 22 21 40 43 40 47 0 10 -227 11 -233 1z"/>
<path d="M2140 2901 c-14 -9 -26 -19 -28 -23 -2 -5 -9 -8 -16 -8 -27 0 -186
-186 -186 -218 0 -7 -4 -12 -9 -12 -4 0 -14 -20 -21 -45 -7 -25 -16 -48 -21
-50 -4 -3 -11 -27 -15 -53 -4 -26 -11 -50 -17 -53 -17 -11 3 -30 21 -20 9 4
55 11 101 14 46 3 87 9 90 14 3 4 28 19 54 33 50 26 100 91 113 147 4 16 9 32
11 36 7 12 6 147 -1 154 -3 4 -6 14 -6 23 0 9 -10 30 -23 47 -21 29 -23 30
-47 14z"/>
<path d="M1814 2118 c3 -50 10 -94 15 -97 4 -3 11 -27 15 -53 4 -27 11 -48 15
-48 4 0 13 -17 19 -39 7 -21 19 -44 27 -51 8 -7 15 -16 15 -21 0 -17 109 -116
153 -139 l44 -23 31 23 c18 13 32 30 32 37 0 7 4 13 10 13 5 0 20 21 32 48 19
39 22 64 23 148 0 66 -4 106 -12 116 -7 8 -10 17 -7 20 3 4 -20 32 -51 63 -31
31 -59 54 -63 51 -3 -3 -11 -1 -18 5 -7 6 -38 13 -69 16 -30 3 -58 10 -61 14
-3 5 -39 9 -81 9 l-76 0 7 -92z"/>
<path d="M1527 1983 c-4 -3 -7 -93 -7 -200 l0 -193 116 0 116 0 -51 57 c-28
31 -51 62 -51 69 0 7 -3 14 -7 16 -10 4 -53 91 -53 106 0 6 -4 12 -10 14 -5 2
-15 33 -22 71 -12 65 -17 74 -31 60z"/>
<path d="M2040 1100 c0 -11 4 -20 9 -20 13 0 32 26 24 33 -13 14 -33 6 -33
-13z"/>
<path d="M2841 1107 c-16 -16 -13 -63 4 -77 22 -18 45 5 45 45 0 35 -28 53
-49 32z"/>
<path d="M4175 1893 c-4 -38 -11 -72 -15 -78 -4 -5 -13 -43 -21 -83 -7 -40
-16 -75 -21 -78 -4 -3 -8 -13 -8 -22 -1 -9 -9 -35 -20 -57 -11 -22 -19 -48
-20 -57 0 -10 -4 -18 -9 -18 -5 0 -12 -13 -16 -30 -4 -16 -10 -30 -15 -30 -5
0 -11 -13 -15 -30 -4 -16 -11 -30 -16 -30 -5 0 -8 -3 -7 -7 4 -12 -54 -123
-64 -123 -4 0 -8 -5 -8 -10 0 -11 -39 -71 -53 -81 -5 -3 -8 -9 -7 -13 4 -15
-130 -176 -221 -265 -121 -121 -295 -259 -355 -281 -13 -5 -24 -14 -24 -19 0
-7 -35 -22 -49 -20 -2 0 -7 -3 -10 -8 -9 -12 -192 -101 -223 -109 -16 -3 -28
-10 -28 -14 0 -4 -17 -11 -37 -15 -21 -4 -43 -11 -50 -17 -7 -5 -17 -7 -22 -4
-5 4 -12 2 -16 -4 -3 -5 -28 -12 -55 -16 -28 -4 -50 -10 -50 -14 0 -4 -30 -11
-67 -15 -106 -11 -103 -7 -103 -170 l0 -141 43 4 c23 2 47 8 52 12 6 4 38 11
73 15 34 4 64 11 67 15 3 4 28 11 55 15 28 4 50 10 50 15 0 4 17 10 39 14 21
3 51 13 67 21 16 8 36 15 44 15 8 0 33 9 55 20 22 11 46 19 53 20 6 0 12 5 12
10 0 6 8 10 18 10 9 0 42 13 72 30 30 16 80 41 110 57 30 15 57 30 60 33 15
15 71 50 80 50 6 0 13 7 16 15 4 8 12 15 19 15 6 0 20 9 30 20 10 11 22 20 27
20 5 0 19 11 32 25 13 14 27 25 31 25 25 0 355 330 355 355 0 4 11 18 25 31
14 13 25 27 25 32 0 5 9 17 20 27 11 10 20 24 20 32 0 7 4 13 9 13 9 0 21 17
53 80 7 14 18 31 25 38 7 7 13 19 13 27 0 7 3 15 8 17 9 4 92 171 92 186 0 7
4 12 10 12 5 0 12 16 16 35 3 19 10 35 15 35 4 0 11 16 15 35 3 19 10 38 15
41 5 3 7 10 3 15 -3 5 -1 15 4 22 6 7 13 29 17 50 4 20 11 39 15 42 5 3 12 30
15 60 4 30 11 55 16 55 4 0 11 32 15 70 4 39 11 73 15 76 5 3 9 18 9 35 l0 29
-149 0 -149 0 -7 -67z"/>
</g>
</svg>
